<?xml version="1.0" encoding="utf-8"?>
<!-- Generator: Adobe Illustrator 27.0.0, SVG Export Plug-In . SVG Version: 6.00 Build 0)  -->
<svg version="1.1" id="Layer_1" xmlns="http://www.w3.org/2000/svg" xmlns:xlink="http://www.w3.org/1999/xlink" x="0px" y="0px"
	 viewBox="0 0 50 50" style="enable-background:new 0 0 50 50;" xml:space="preserve">
<style type="text/css">
	.st0{fill:#515251;}
	.st1{fill:#FFFFFF;}
	.st2{fill:#000002;}
</style>
<g>
	<path class="st0" d="M45.16,8.61c-0.02-0.47-0.05-0.75-0.1-1.51c-0.02-0.42-0.04-0.77-0.05-1c-0.51-0.12-1.2-0.27-2.02-0.45
		c-1.03-0.22-3-0.65-5.46-1.08c-2.15-0.38-3.5-0.62-5.45-0.83c-0.66-0.07-2.49-0.27-4.86-0.36c-0.55-0.02-1.66-0.06-3.07-0.06
		c-1.43,0-2.53,0.04-2.92,0.06c-0.6,0.02-1.61,0.07-2.88,0.18c-0.84,0.07-1.63,0.17-1.81,0.19c-0.68,0.08-0.76,0.1-1.5,0.18
		c-0.41,0.05-0.62,0.06-0.99,0.12c-0.39,0.06-0.48,0.08-0.98,0.16c-0.58,0.09-0.61,0.08-1.1,0.16c-0.57,0.09-1.01,0.18-1.37,0.25
		c-0.45,0.09-0.45,0.1-1.34,0.28C8.64,5.03,8.66,5.02,8.15,5.13C7.32,5.3,6.77,5.43,6.64,5.46C6.35,5.53,6.1,5.59,5.75,5.68
		c-0.41,0.1-0.61,0.16-1.13,0.29C4.34,6.03,4.11,6.09,3.97,6.12c0,0-0.05,0.67-0.09,1.28C3.86,7.6,3.84,7.97,3.82,8.42
		C3.8,9.06,3.8,9.53,3.8,9.9c0,0.77,0.02,1.34,0.03,1.92c0.03,1.09,0.05,1.65,0.12,2.28c0.01,0.12,0.05,0.45,0.1,0.83
		c0.07,0.51,0.07,0.53,0.13,0.98c0.09,0.69,0.09,0.8,0.16,1.25c0.03,0.21,0.06,0.34,0.14,0.77c0.23,1.27,0.35,1.91,0.44,2.29
		C5,20.5,5.08,20.79,5.25,21.38c0.07,0.23,0.29,1.01,0.64,2.1c0.21,0.67,0.32,1,0.47,1.4c0.26,0.71,0.51,1.28,0.69,1.69
		c0.23,0.54,0.46,1.08,0.69,1.62l0.52,0.98H8.24c0.22,0.41,0.44,0.82,0.66,1.23c0.16,0.29,0.4,0.71,0.71,1.22
		c1.41,2.33,2.76,3.99,3.37,4.72c0.68,0.81,1.57,1.8,2.69,2.88l1.22,1.09c0.15,0.14,0.43,0.39,0.61,0.54
		c0.85,0.73,1.08,0.96,1.55,1.35c0.37,0.31,0.76,0.59,1.53,1.15c0.71,0.52,1.22,0.86,1.84,1.28c0.66,0.45,1.07,0.71,1.58,1.01
		c0.18,0.11,0.34,0.19,0.45,0.25c0.13-0.06,0.32-0.14,0.54-0.25c0.66-0.33,1.14-0.67,2.5-1.62c0.42-0.3,1.17-0.84,2.07-1.55
		c0.55-0.44,1-0.81,1.34-1.09c0.55-0.46,1.02-0.86,1.37-1.17l1.04-1.03c0.69-0.73,1.39-1.46,2.09-2.19l1.66-2.03
		c0.47-0.66,0.95-1.33,1.43-1.99l1.03-1.59c0.25-0.47,0.51-0.95,0.79-1.43c0.14-0.25,0.29-0.49,0.43-0.73l0.49-1.02
		c0.14-0.3,0.34-0.72,0.55-1.23c0.24-0.55,0.93-2.2,1.62-4.45c0.68-2.25,1.02-4.01,1.11-4.5c0.09-0.5,0.41-2.25,0.58-4.54
		c0.11-1.46,0.12-2.6,0.12-3.27C45.19,9.6,45.19,9.19,45.16,8.61z M43.78,11.02c0,0.62-0.01,1.69-0.11,3.06
		c-0.16,2.14-0.45,3.78-0.54,4.25c-0.08,0.46-0.4,2.1-1.03,4.21c-0.64,2.11-1.28,3.64-1.51,4.16c-0.2,0.48-0.39,0.87-0.52,1.15
		l-0.45,0.96c-0.14,0.22-0.27,0.45-0.4,0.69c-0.26,0.45-0.5,0.9-0.73,1.34l-0.96,1.49c-0.44,0.62-0.89,1.24-1.33,1.86l-1.55,1.9
		c-0.65,0.68-1.3,1.36-1.94,2.05l-0.97,0.96l0,0c-0.32,0.29-0.76,0.66-1.27,1.09c-0.32,0.27-0.73,0.61-1.25,1.02
		c-0.84,0.67-1.54,1.17-1.93,1.45c-1.27,0.9-1.72,1.21-2.33,1.52c-0.21,0.1-0.38,0.18-0.5,0.24c-0.1-0.06-0.24-0.14-0.41-0.24
		c-0.48-0.28-0.86-0.53-1.47-0.95c-0.58-0.39-1.05-0.72-1.72-1.2c-0.72-0.52-1.08-0.78-1.42-1.07c-0.44-0.37-0.65-0.58-1.45-1.26
		c-0.24-0.21-0.66-0.6-0.67-0.6l0,0l-1.03-0.92l0,0c-1.04-1.01-1.87-1.94-2.5-2.7c-0.57-0.68-1.83-2.24-3.14-4.42
		c-0.28-0.47-0.51-0.86-0.66-1.14c-0.2-0.38-0.41-0.77-0.61-1.15l-0.47-0.92c-0.22-0.51-0.43-1.01-0.65-1.52
		c-0.17-0.38-0.4-0.91-0.64-1.58c-0.14-0.38-0.24-0.69-0.44-1.31c-0.33-1.01-0.54-1.75-0.6-1.96c-0.16-0.55-0.24-0.83-0.3-1.09
		c-0.09-0.35-0.2-0.96-0.41-2.14c-0.07-0.4-0.1-0.53-0.13-0.72c-0.07-0.43-0.06-0.52-0.15-1.17c-0.06-0.43-0.06-0.44-0.13-0.92
		c-0.05-0.36-0.08-0.66-0.1-0.77c-0.07-0.59-0.08-1.11-0.11-2.13c-0.02-0.54-0.03-1.07-0.03-1.8c0-0.34,0-0.79,0.02-1.39
		c0.02-0.42,0.04-0.77,0.05-0.95c0.03-0.57,0.08-1.2,0.08-1.2C5.5,7.16,5.71,7.11,5.97,7.04c0.49-0.12,0.67-0.17,1.05-0.27
		c0.33-0.08,0.56-0.14,0.83-0.2C7.98,6.55,8.5,6.43,9.26,6.27c0.48-0.1,0.46-0.1,1.05-0.22c0.83-0.17,0.82-0.18,1.24-0.27
		c0.33-0.07,0.74-0.15,1.27-0.23c0.46-0.07,0.49-0.06,1.03-0.15c0.47-0.08,0.55-0.1,0.91-0.15c0.34-0.05,0.54-0.07,0.92-0.11
		c0.69-0.08,0.77-0.09,1.39-0.17c0.16-0.02,0.9-0.1,1.68-0.17c1.18-0.11,2.12-0.15,2.68-0.17c0.37-0.02,1.39-0.05,2.73-0.06
		c1.31,0,2.34,0.03,2.86,0.06c2.21,0.09,3.92,0.27,4.53,0.34c1.81,0.2,3.08,0.43,5.08,0.78c2.29,0.41,4.12,0.8,5.09,1.01
		c0.76,0.17,1.41,0.31,1.88,0.42c0.01,0.21,0.02,0.54,0.05,0.93c0.04,0.7,0.07,0.97,0.09,1.41C43.78,10.06,43.78,10.45,43.78,11.02z
		"/>
	<path class="st1" d="M41.17,10.61c-0.02-0.57-0.05-1.05-0.07-1.39c-1.22-0.34-2.28-0.59-3.12-0.78c-1.22-0.27-2.7-0.6-4.56-0.85
		l-1.2-0.14c0.25,0.06,0.45,0.14,0.61,0.21c0.26,0.15,0.61,0.4,0.96,0.75C34.34,9,34.6,9.57,34.68,9.76
		c0.33,0.77,0.33,1.43,0.32,1.9c-0.01,1.41-0.49,2.56-0.89,3.28c-0.05-0.08-0.11-0.18-0.19-0.31c-0.14-0.22-0.33-0.48-0.64-0.85
		c-0.24-0.29-0.57-0.67-1.05-1.13c-0.13-0.12-1.02-0.95-2.11-1.57c-0.58-0.33-1.1-0.54-1.17-0.57c-0.12-0.05-0.27-0.1-0.3-0.12
		l-0.15-0.06l0-0.06c0,0,0-0.13,0-0.13c0-0.03,0.01-0.49,0.08-0.81c0.16-0.73,0.64-1.41,0.92-1.6c0.16-0.11,0.33-0.17,0.33-0.17
		C29.91,7.53,30,7.51,30.06,7.5c0.25-0.08,0.62-0.16,1.09-0.17c-0.04,0-0.08-0.01-0.11-0.01c-0.86-0.1-1.29-0.15-1.57-0.17
		c-1.2-0.11-2.09-0.13-3.57-0.15c-0.97-0.02-1.78-0.03-2.9,0c-0.8,0.02-2.04,0.07-3.55,0.19l-0.83,0.09l-0.62,0.07
		c0.14,0,0.29,0.01,0.45,0.03c0.08,0.01,0.17,0.03,0.25,0.04c0.43,0.09,0.65,0.22,0.74,0.28c0.32,0.2,0.48,0.45,0.61,0.63
		c0.06,0.09,0.38,0.57,0.43,1.14c0.01,0.09,0.01,0.22,0.01,0.34c0,0.22-0.01,0.41-0.03,0.54c-1.26,0.55-2.22,1.17-2.87,1.65
		c-1.92,1.4-2.44,2.5-2.6,2.86c-0.03,0.06-0.04,0.1-0.06,0.14c-0.72-1.02-0.93-1.93-0.93-2.66c0-0.02,0-0.04,0-0.06v-0.79
		c0-0.24,0.01-0.46,0.04-0.63c0.04-0.31,0.11-0.55,0.14-0.64c0.07-0.21,0.13-0.36,0.17-0.44c0.12-0.27,0.24-0.47,0.31-0.58
		c0.08-0.13,0.15-0.23,0.18-0.27c0.09-0.13,0.17-0.23,0.2-0.27c0.1-0.13,0.26-0.32,0.5-0.52c0.12-0.11,0.21-0.17,0.24-0.19
		c0.05-0.03,0.14-0.09,0.29-0.16c0.14-0.06,0.35-0.15,0.63-0.23c0.1-0.03,0.21-0.05,0.31-0.08c0.01,0,0.03-0.01,0.05-0.01
		l-0.19,0.02c-0.67,0.09-1.23,0.17-1.68,0.24c-0.74,0.11-3.19,0.5-6.36,1.26C8.37,9.06,8,9.15,7.75,9.22
		c-0.01,0.25-0.03,0.62-0.04,1.06c-0.04,0.97-0.06,1.46-0.07,1.78c-0.01,0.59-0.03,1.39,0.02,2.41c0.03,0.49,0.08,1.15,0.18,1.93
		c0.02,0.23,0.06,0.55,0.11,0.93c0.2,1.52,0.46,2.71,0.61,3.34c0.15,0.62,0.34,1.47,0.7,2.56c0,0,0.52,1.6,1.46,3.64
		c0.17,0.37,0.34,0.69,0.34,0.69c0.06,0.12,0.11,0.21,0.14,0.27c-0.12,0-0.24,0-0.36,0c-0.17,0-0.34,0-0.52,0c-0.48,0-0.95,0-1.43,0
		l0.47,0.92h2.33c0.33,0.62,0.76,1.37,1.33,2.21c0.46,0.68,0.84,1.19,1.15,1.59c0.44,0.58,1,1.28,1.68,2.06
		c-0.02-1.9-0.04-3.8-0.06-5.71h3.39c1,1.73,2.01,3.46,3.01,5.19c-0.04-1.73-0.07-3.46-0.11-5.19h3.28v9.19l-3.7,0.04
		c-0.79-1.43-1.59-2.86-2.38-4.29c0.05,1.43,0.1,2.85,0.16,4.28c-1.05,0.01-2.1,0.02-3.15,0.03l1.03,0.92
		c1.12-0.01,2.24-0.01,3.36-0.02c0.49,0.42,1.05,0.86,1.68,1.29c0.74,0.51,1.45,0.94,2.11,1.29c0.99-0.59,2-1.25,3.02-1.99
		c0.24-0.17,0.47-0.35,0.7-0.52c1.19-0.01,2.37-0.03,3.56-0.04l0.97-0.96c-2.33,0-4.65,0-6.98,0.01c-0.01-2.95-0.01-9.21-0.01-9.21
		c4.63-0.04,9.27-0.08,13.9-0.11l0.45-0.96c-0.81-0.01-1.62-0.01-2.43-0.02c0.14-0.25,0.34-0.61,0.56-1.06
		c0.08-0.16,0.38-0.79,0.85-2.06c0.18-0.49,0.42-1.12,0.67-1.95c0.09-0.29,0.46-1.5,0.81-3.25c0.21-1.06,0.51-2.57,0.63-4.55
		C41.27,13.31,41.22,11.93,41.17,10.61z M20.43,26.17c-0.27,0.02-0.68,0.02-1.16-0.12c-0.05-0.01-0.23-0.07-0.45-0.16
		c-0.64-0.28-1.04-0.67-1.14-0.77c-0.12-0.12-0.46-0.48-0.71-1.06c-0.17-0.39-0.24-0.74-0.27-0.98c-0.04-0.45-0.06-0.99,0.01-1.6
		c0.04-0.36,0.1-0.69,0.17-0.99l0.05-0.1c2.02,0.92,4.03,1.84,6.05,2.76C22.12,24.16,21.28,25.17,20.43,26.17z M26.29,27.71
		c-0.05,0.08-0.12,0.12-0.13,0.13c-0.2,0.11-0.69,0.45-1.37,0.94h-0.25l-0.15,0h-0.13l-0.02-0.01c-0.71-0.48-1.24-0.84-1.43-0.97
		c-0.02-0.01-0.1-0.06-0.13-0.15c-0.06-0.14-0.01-0.3,0.1-0.37c0.07-0.04,0.14-0.04,0.16-0.04c0.22,0.01,1.46,0.01,3.18,0
		c0.1,0,0.15,0.04,0.17,0.06C26.39,27.39,26.36,27.59,26.29,27.71z M32.31,23.14c-0.01,0.06-0.17,0.79-0.55,1.44
		c-0.1,0.18-0.19,0.29-0.24,0.35c-0.06,0.08-0.29,0.35-0.68,0.61c-0.34,0.23-0.64,0.32-0.94,0.43c-0.6,0.2-1.01,0.22-1.11,0.22
		c-0.09,0-0.17,0-0.22,0c-0.83-1.01-1.66-2.02-2.49-3.02c2.02-0.92,4.03-1.85,6.05-2.77C32.19,20.65,32.56,21.92,32.31,23.14z"/>
	<g>
		<path class="st1" d="M38.48,30.82l-0.96,1.49c-2.78,0-5.56,0.01-8.34,0.01c0-0.5,0-1-0.01-1.5
			C32.28,30.82,35.38,30.82,38.48,30.82z"/>
		<path class="st1" d="M36.19,34.17l-1.55,1.9c-1.82-0.01-3.63-0.02-5.45-0.02c0-0.62,0.01-1.24,0.01-1.86
			C31.53,34.18,33.86,34.18,36.19,34.17z"/>
	</g>
	<path class="st2" d="M16.49,7.5l0.61-0.07c0.01,0,0.03-0.01,0.04-0.01C16.91,7.44,16.69,7.47,16.49,7.5z"/>
	<path class="st2" d="M17.98,7.34c-0.03,0-0.06,0-0.1,0l-0.79,0.09c-0.02,0-0.04,0.01-0.06,0.01l0.57-0.06L17.98,7.34z"/>
	<path class="st2" d="M31.17,7.33l1.04,0.12c-0.19-0.05-0.41-0.09-0.65-0.11c-0.14-0.01-0.28-0.02-0.41-0.01
		C31.16,7.32,31.17,7.33,31.17,7.33C31.18,7.33,31.18,7.33,31.17,7.33z"/>
	<g>
		<path d="M39.61,28.8c-0.14,0.22-0.27,0.45-0.4,0.69c-0.26,0.45-0.5,0.9-0.73,1.34c-3.1,0-6.2,0-9.3-0.01c0,0.5,0,1,0.01,1.5
			c2.78,0,5.56-0.01,8.34-0.01c-0.44,0.62-0.89,1.24-1.33,1.86c-2.33,0.01-4.66,0.01-6.99,0.02c0,0.62-0.01,1.24-0.01,1.86
			c1.82,0.01,3.63,0.02,5.45,0.02c-0.65,0.68-1.3,1.36-1.94,2.05c-2.33,0-4.65,0-6.98,0.01c-0.01-2.95-0.01-9.21-0.01-9.21
			C30.35,28.87,34.98,28.84,39.61,28.8z"/>
		<path d="M43.78,11.02c0,0.62-0.01,1.69-0.11,3.06c-0.16,2.14-0.45,3.78-0.54,4.25c-0.08,0.46-0.4,2.1-1.03,4.21
			c-0.64,2.11-1.28,3.64-1.51,4.16c-0.2,0.48-0.39,0.87-0.52,1.15c-0.81-0.01-1.62-0.01-2.43-0.02c0.14-0.25,0.34-0.61,0.56-1.06
			c0.08-0.16,0.38-0.79,0.85-2.06c0.18-0.49,0.42-1.12,0.67-1.95c0.09-0.29,0.46-1.5,0.81-3.25c0.21-1.06,0.51-2.57,0.63-4.55
			c0.1-1.63,0.05-3.01,0-4.34c-0.02-0.57-0.05-1.05-0.07-1.39c-1.22-0.34-2.28-0.59-3.12-0.78c-1.22-0.27-2.7-0.6-4.56-0.85
			l-1.2-0.14c-0.19-0.05-0.41-0.09-0.65-0.11c-0.14-0.01-0.28-0.02-0.41-0.01c-0.04,0-0.08-0.01-0.11-0.01
			c-0.86-0.1-1.29-0.15-1.57-0.17c-1.2-0.11-2.09-0.13-3.57-0.15c-0.97-0.02-1.78-0.03-2.9,0c-0.8,0.02-2.04,0.07-3.55,0.19
			l-0.83,0.09l-0.62,0.07c-0.03,0-0.06,0-0.1,0l-0.79,0.09c0.01,0,0.03-0.01,0.04-0.01c-0.23,0.03-0.44,0.05-0.65,0.08l0.61-0.07
			c-0.02,0-0.04,0.01-0.06,0.01l-0.19,0.02c-0.67,0.09-1.23,0.17-1.68,0.24c-0.74,0.11-3.19,0.5-6.36,1.26
			C8.37,9.06,8,9.15,7.75,9.22c-0.01,0.25-0.03,0.62-0.04,1.06c-0.04,0.97-0.06,1.46-0.07,1.78c-0.01,0.59-0.03,1.39,0.02,2.41
			c0.03,0.49,0.08,1.15,0.18,1.93c0.02,0.23,0.06,0.55,0.11,0.93c0.2,1.52,0.46,2.71,0.61,3.34c0.15,0.62,0.34,1.47,0.7,2.56
			c0,0,0.52,1.6,1.46,3.64c0.17,0.37,0.34,0.69,0.34,0.69c0.06,0.12,0.11,0.21,0.14,0.27c-0.12,0-0.24,0-0.36,0
			c-0.17,0-0.34,0-0.52,0c-0.48,0-0.95,0-1.43,0c-0.22-0.51-0.43-1.01-0.65-1.52c-0.17-0.38-0.4-0.91-0.64-1.58
			c-0.14-0.38-0.24-0.69-0.44-1.31c-0.33-1.01-0.54-1.75-0.6-1.96c-0.16-0.55-0.24-0.83-0.3-1.09c-0.09-0.35-0.2-0.96-0.41-2.14
			c-0.07-0.4-0.1-0.53-0.13-0.72c-0.07-0.43-0.06-0.52-0.15-1.17c-0.06-0.43-0.06-0.44-0.13-0.92c-0.05-0.36-0.08-0.66-0.1-0.77
			c-0.07-0.59-0.08-1.11-0.11-2.13c-0.02-0.54-0.03-1.07-0.03-1.8c0-0.34,0-0.79,0.02-1.39c0.02-0.42,0.04-0.77,0.05-0.95
			c0.03-0.57,0.08-1.2,0.08-1.2C5.5,7.16,5.71,7.11,5.97,7.04c0.49-0.12,0.67-0.17,1.05-0.27c0.33-0.08,0.56-0.14,0.83-0.2
			C7.98,6.55,8.5,6.43,9.26,6.27c0.48-0.1,0.46-0.1,1.05-0.22c0.83-0.17,0.82-0.18,1.24-0.27c0.33-0.07,0.74-0.15,1.27-0.23
			c0.46-0.07,0.49-0.06,1.03-0.15c0.47-0.08,0.55-0.1,0.91-0.15c0.34-0.05,0.54-0.07,0.92-0.11c0.69-0.08,0.77-0.09,1.39-0.17
			c0.16-0.02,0.9-0.1,1.68-0.17c1.18-0.11,2.12-0.15,2.68-0.17c0.37-0.02,1.39-0.05,2.73-0.06c1.31,0,2.34,0.03,2.86,0.06
			c2.21,0.09,3.92,0.27,4.53,0.34c1.81,0.2,3.08,0.43,5.08,0.78c2.29,0.41,4.12,0.8,5.09,1.01c0.76,0.17,1.41,0.31,1.88,0.42
			c0.01,0.21,0.02,0.54,0.05,0.93c0.04,0.7,0.07,0.97,0.09,1.41C43.78,10.06,43.78,10.45,43.78,11.02z"/>
		<path d="M16.68,7.52c-0.28,0.08-0.49,0.16-0.63,0.23c-0.15,0.07-0.24,0.13-0.29,0.16c-0.03,0.02-0.12,0.08-0.24,0.19
			c-0.24,0.2-0.39,0.4-0.5,0.52c-0.03,0.04-0.11,0.13-0.2,0.27c-0.03,0.05-0.1,0.14-0.18,0.27c-0.07,0.11-0.19,0.31-0.31,0.58
			c-0.04,0.09-0.11,0.24-0.17,0.44c-0.03,0.09-0.1,0.33-0.14,0.64C14,11,13.98,11.22,13.99,11.46l0,0.79c0,0.02,0,0.04,0,0.06
			c0.01,0.73,0.22,1.63,0.93,2.66c0.01-0.03,0.03-0.08,0.06-0.13c0.16-0.36,0.68-1.45,2.6-2.86c0.65-0.48,1.61-1.09,2.87-1.65
			c0.01-0.13,0.03-0.31,0.03-0.54c0-0.12-0.01-0.25-0.01-0.34c-0.05-0.57-0.37-1.04-0.43-1.14c-0.12-0.18-0.29-0.43-0.61-0.63
			c-0.09-0.06-0.31-0.19-0.74-0.28c-0.08-0.02-0.17-0.03-0.25-0.04c-0.15-0.02-0.3-0.03-0.45-0.03l-0.37,0.04l-0.57,0.06
			c-0.01,0-0.03,0.01-0.05,0.01C16.89,7.47,16.78,7.5,16.68,7.52z"/>
		<path d="M29.82,7.57c0,0-0.17,0.07-0.33,0.17c-0.28,0.19-0.77,0.87-0.92,1.6c-0.07,0.32-0.08,0.78-0.08,0.81c0,0,0,0.13,0,0.13
			l0,0.06l0.15,0.06c0.03,0.02,0.18,0.07,0.3,0.12c0.06,0.03,0.59,0.24,1.17,0.57c1.09,0.62,1.98,1.45,2.11,1.57
			c0.48,0.45,0.81,0.84,1.05,1.13c0.31,0.37,0.5,0.63,0.64,0.85c0.08,0.12,0.15,0.23,0.19,0.31c0.4-0.72,0.88-1.87,0.89-3.28
			c0-0.47,0-1.13-0.32-1.9C34.6,9.58,34.34,9,33.77,8.41c-0.35-0.36-0.7-0.6-0.96-0.75c-0.16-0.07-0.36-0.15-0.61-0.21l-1.04-0.12
			c0,0,0,0,0,0c-0.01,0-0.02,0-0.03,0c-0.47,0.01-0.85,0.1-1.09,0.17C30,7.51,29.92,7.53,29.82,7.57z"/>
		<path d="M25.35,28.91v9.19l-3.7,0.04c-0.79-1.43-1.59-2.86-2.38-4.29c0.05,1.43,0.1,2.85,0.16,4.28c-1.05,0.01-2.1,0.02-3.15,0.03
			c0,0,0,0,0,0c-1.04-1.01-1.87-1.94-2.5-2.7c-0.57-0.68-1.83-2.24-3.14-4.42c-0.28-0.47-0.51-0.86-0.66-1.14
			c-0.2-0.38-0.41-0.77-0.61-1.15h2.33c0.33,0.62,0.76,1.37,1.33,2.21c0.46,0.68,0.84,1.19,1.15,1.59c0.44,0.58,1,1.28,1.68,2.06
			c-0.02-1.9-0.04-3.8-0.06-5.71h3.39c1,1.73,2.01,3.46,3.01,5.19c-0.04-1.73-0.07-3.46-0.11-5.19H25.35z"/>
		<path d="M31.73,39.08C31.73,39.08,31.73,39.09,31.73,39.08c-0.33,0.29-0.76,0.66-1.27,1.09c-0.32,0.27-0.73,0.61-1.25,1.02
			c-0.84,0.67-1.54,1.17-1.93,1.45c-1.27,0.9-1.72,1.21-2.33,1.52c-0.21,0.1-0.38,0.18-0.5,0.24c-0.1-0.06-0.24-0.14-0.41-0.24
			c-0.48-0.28-0.86-0.53-1.47-0.95c-0.58-0.39-1.05-0.72-1.72-1.2c-0.72-0.52-1.08-0.78-1.42-1.07c-0.44-0.37-0.65-0.58-1.45-1.26
			c-0.23-0.2-0.64-0.57-0.67-0.6c0,0,0,0,0,0l0,0c1.12-0.01,2.24-0.01,3.36-0.02c0.49,0.42,1.05,0.86,1.68,1.29
			c0.74,0.51,1.45,0.94,2.11,1.29c0.99-0.59,2-1.25,3.02-1.99c0.24-0.17,0.47-0.35,0.7-0.52C29.36,39.11,30.54,39.1,31.73,39.08z"/>
		<path d="M16.92,20.39l-0.05,0.1c-0.07,0.3-0.13,0.63-0.17,0.99c-0.06,0.6-0.05,1.14-0.01,1.6c0.03,0.24,0.1,0.59,0.27,0.98
			c0.25,0.58,0.6,0.95,0.71,1.06c0.1,0.1,0.5,0.49,1.14,0.77c0.22,0.1,0.4,0.15,0.45,0.16c0.48,0.13,0.89,0.13,1.16,0.12
			c0.84-1.01,1.69-2.01,2.53-3.02C20.95,22.23,18.93,21.31,16.92,20.39z"/>
		<path d="M26.06,23.17c0.83,1.01,1.66,2.02,2.49,3.02c0.05,0,0.13,0,0.22,0c0.1,0,0.51-0.02,1.11-0.22c0.3-0.1,0.59-0.2,0.94-0.43
			c0.39-0.26,0.62-0.53,0.68-0.61c0.05-0.06,0.14-0.18,0.24-0.35c0.38-0.65,0.54-1.37,0.55-1.44c0.25-1.23-0.12-2.49-0.2-2.75
			C30.09,21.32,28.07,22.24,26.06,23.17z"/>
		<path d="M26.1,27.23c-1.72,0.01-2.96,0.02-3.18,0c-0.02,0-0.09-0.01-0.16,0.04c-0.1,0.07-0.16,0.24-0.1,0.37
			c0.04,0.09,0.11,0.14,0.13,0.15c0.2,0.13,0.72,0.48,1.43,0.97l0.02,0.01c0,0,0.13,0,0.13,0c0,0,0.15,0,0.15,0c0,0,0.25,0,0.25,0
			c0.69-0.49,1.18-0.83,1.37-0.94c0.02-0.01,0.08-0.05,0.13-0.13c0.08-0.12,0.1-0.32-0.02-0.42C26.25,27.27,26.2,27.24,26.1,27.23z"
			/>
	</g>
</g>
</svg>
