<?xml version="1.0" encoding="utf-8"?>
<!-- Svg Vector Icons : http://www.onlinewebfonts.com/icon -->
<!DOCTYPE svg PUBLIC "-//W3C//DTD SVG 1.1//EN" "http://www.w3.org/Graphics/SVG/1.1/DTD/svg11.dtd">
<svg version="1.1" xmlns="http://www.w3.org/2000/svg" xmlns:xlink="http://www.w3.org/1999/xlink" x="0px" y="0px" fill="white" viewBox="0 0 1000 1000" enable-background="new 0 0 1000 1000" xml:space="preserve">
<metadata> Svg Vector Icons : http://www.onlinewebfonts.com/icon </metadata>
<g><path d="M867.5,908.3v-245h81.7v245H867.5z M785.8,581.7h81.7v81.7h-81.7V581.7z M622.5,581.7h-81.7V500h81.7v-81.7h81.7V500h81.7v81.7h-81.7H622.5z M622.5,91.7h81.7v81.7h-81.7V91.7z M295.8,173.3V91.7h81.7v81.7L295.8,173.3L295.8,173.3z M377.5,500h81.7v81.7h-245V500h81.7v-81.7h81.7L377.5,500L377.5,500z M132.5,663.3v-81.7h81.7v81.7L132.5,663.3L132.5,663.3z M867.5,990h-735v-81.7h735V990L867.5,990z M50.8,908.3v-245h81.7v245H50.8z M214.2,418.3v-245h81.7v245H214.2z M377.5,10h245v81.7h-245V10z M785.8,173.3v245h-81.7v-245H785.8z"/></g>
</svg>